<?xml version="1.0" encoding="UTF-8"?>
<svg id="Layer_1" data-name="Layer 1" xmlns="http://www.w3.org/2000/svg" viewBox="0 0 512 512">
  <defs>
    <style>
      .cls-1 {
        fill: #fff;
      }

      .cls-2 {
        fill: #4f39f6;
      }
    </style>
  </defs>
  <rect class="cls-2" width="512" height="512" rx="65.43" ry="65.43"/>
  <g>
    <path class="cls-1" d="m354.75,233.59c-5.6,5.6-9.81,11.21-12.61,18.21-2.8,7-2.8,14.01-2.8,22.41h0c1.4,8.4,0,18.21-2.8,26.61-2.8,8.4-8.4,15.41-14.01,22.41-5.6,5.6-14.01,11.21-22.41,14.01-8.4,2.8-16.81,4.2-26.61,2.8h0c-11.21-1.4-21.01,1.4-30.82,7s-16.81,12.61-21.01,22.41c-4.2,9.81-5.6,21.01-4.2,30.82,1.4,9.81,7,19.61,14.01,28.01,7,7,16.81,12.61,28.01,14.01,9.81,1.4,21.01,0,30.82-4.2s18.21-11.21,22.41-21.01c4.2-9.81,7-19.61,7-30.82h0c-1.4-8.4,0-18.21,2.8-26.61,2.8-8.4,8.4-15.41,14.01-22.41,5.6-5.6,14.01-11.21,22.41-14.01,8.4-2.8,16.81-4.2,26.61-2.8h0c8.4,1.4,16.81,0,25.21-4.2,8.4-2.8,15.41-8.4,19.61-15.41,5.6-7,8.4-15.41,9.81-23.81s0-16.81-2.8-25.21c-2.8-8.4-8.4-15.41-14.01-21.01-5.6-5.6-14.01-9.81-22.41-11.21s-16.81-1.4-25.21,1.4c-7,1.4-14.01,5.6-21.01,12.61h0Z"/>
    <path class="cls-1" d="m251.1,306.43h0c7,0,15.41,0,22.41-2.8,7-2.8,14.01-7,18.21-12.61,5.6-5.6,9.81-11.21,12.61-18.21,2.8-7,2.8-14.01,2.8-22.41h0c-1.4-8.4,0-18.21,2.8-26.61,2.8-8.4,8.4-15.41,14.01-22.41,5.6-5.6,14.01-11.21,22.41-14.01s16.81-4.2,26.61-2.8h0c11.21,1.4,21.01-1.4,30.82-7,9.81-5.6,16.81-12.61,21.01-22.41,4.2-9.81,5.6-21.01,4.2-30.82s-7-19.61-14.01-28.01c-7-7-16.81-12.61-28.01-14.01-9.81-1.4-21.01,0-30.82,4.2s-18.21,11.21-22.41,21.01c-5.6,9.81-7,19.61-7,30.82h0c1.4,8.4,0,18.21-2.8,26.61-2.8,8.4-8.4,15.41-14.01,22.41-5.6,5.6-14.01,11.21-22.41,14.01s-16.81,4.2-26.61,2.8h0c-7-1.4-15.41,0-22.41,2.8s-14.01,7-18.21,12.61c-5.6,5.6-9.81,11.21-12.61,18.21-2.8,7-2.8,14.01-2.8,22.41h0c1.4,8.4,0,18.21-2.8,26.61-2.8,8.4-8.4,15.41-14.01,22.41-5.6,5.6-14.01,11.21-22.41,14.01-8.4,1.4-18.21,2.8-26.61,2.8h0c-11.21-1.4-21.01,1.4-30.82,7-9.81,5.6-16.81,12.61-21.01,22.41-4.2,9.81-5.6,19.61-4.2,30.82,1.4,9.81,7,19.61,14.01,28.01,7,7,16.81,12.61,28.01,14.01,9.81,1.4,21.01,0,30.82-4.2s18.21-11.21,22.41-21.01c5.6-9.81,7-19.61,7-30.82h0c-1.4-8.4,0-18.21,2.8-26.61,2.8-8.4,8.4-15.41,14.01-22.41,5.6-5.6,14.01-11.21,22.41-14.01,9.81-1.4,18.21-2.8,26.61-2.8h0Z"/>
    <path class="cls-1" d="m157.25,278.41c5.6-5.6,9.81-11.21,11.21-18.21,2.8-7,2.8-14.01,2.8-22.41h0c-1.4-8.4,0-18.21,2.8-26.61,2.8-8.4,8.4-15.41,14.01-22.41,5.6-5.6,14.01-11.21,22.41-14.01,9.81-1.4,19.61-2.8,28.01-2.8h0c11.21,1.4,21.01-1.4,30.82-7,9.81-5.6,16.81-12.61,21.01-22.41,4.2-9.81,5.6-21.01,4.2-30.82s-7-19.61-14.01-28.01c-7-8.4-16.81-12.61-28.01-14.01-9.81-1.4-21.01,0-30.82,4.2s-18.21,11.21-22.41,21.01c-5.6,9.81-7,19.61-7,30.82h0c1.4,8.4,0,18.21-2.8,26.61-2.8,8.4-8.4,15.41-14.01,22.41-5.6,5.6-14.01,11.21-22.41,14.01-8.4,2.8-16.81,4.2-26.61,2.8h0c-8.4-1.4-16.81,0-25.21,4.2s-15.41,8.4-19.61,15.41c-5.6,7-8.4,15.41-9.81,23.81-1.4,8.4,0,16.81,2.8,25.21,2.8,8.4,8.4,15.41,14.01,21.01,7,5.6,14.01,9.81,22.41,11.21,8.4,1.4,16.81,1.4,25.21-1.4,8.4-1.4,15.41-5.6,21.01-12.61h0Z"/>
  </g>
</svg>